<svg role="img" viewBox="0 0 24 24" xmlns="http://www.w3.org/2000/svg"><title>C#</title><path d="M11.5 15.97l.56 2.94c-.42.21-.97.38-1.64.51-.68.13-1.39.2-2.14.2-2.38 0-4.24-.7-5.57-2.09C1.07 16.04.5 14.2.5 11.87c0-2.42.65-4.35 1.97-5.76C3.79 4.7 5.64 4 7.94 4c.75 0 1.44.07 2.07.2.63.14 1.15.3 1.56.49l-.56 2.95-.76-.32c-.3-.1-.66-.15-1.07-.15-1.19 0-2.12.37-2.79 1.1-.67.74-1 1.77-1 3.1 0 1.26.32 2.26.95 3 .63.73 1.55 1.1 2.74 1.1.41 0 .79-.04 1.14-.12l.84-.28zm4.5-3.97H14v-2h2v-2h2v2h2v2h-2v2h-2v-2zm-4 0H10v-2h2v-2h2v2h-2v2h-2v-2z"/></svg>
