<svg xmlns="http://www.w3.org/2000/svg" viewBox="0 0 32 32" width="32" height="32">
  <rect width="32" height="32" rx="7" fill="#8957E5"/>
  <path fill="#fff" d="M16 4.8A11.2 11.2 0 0 0 4.8 16c0 4.95 3.21 9.15 7.66 10.63.56.1.76-.24.76-.54v-1.88c-3.11.68-3.77-1.5-3.77-1.5-.51-1.3-1.25-1.64-1.25-1.64-1.02-.7.08-.69.08-.69 1.13.08 1.72 1.16 1.72 1.16 1 1.72 2.63 1.22 3.27.93.1-.73.39-1.22.71-1.5-2.48-.28-5.09-1.24-5.09-5.52 0-1.22.44-2.21 1.15-2.99-.12-.28-.5-1.42.11-2.95 0 0 .94-.3 3.07 1.14a10.67 10.67 0 0 1 2.8-.38c.95 0 1.9.13 2.8.38 2.13-1.44 3.07-1.14 3.07-1.14.61 1.53.23 2.67.11 2.95.72.78 1.15 1.77 1.15 2.99 0 4.29-2.61 5.23-5.1 5.51.4.35.76 1.03.76 2.07v3.07c0 .3.2.65.77.54A11.2 11.2 0 0 0 27.2 16 11.2 11.2 0 0 0 16 4.8z"/>
</svg>
