<svg role="img" viewBox="0 0 24 24" xmlns="http://www.w3.org/2000/svg"><title>Go</title><path d="M1.811 10.715c-.047 0-.058-.023-.035-.059l.246-.315c.023-.035.081-.058.128-.058h4.172c.046 0 .058.035.035.07l-.199.303c-.023.036-.082.07-.117.07zM.047 11.79c-.047 0-.059-.023-.035-.058l.245-.316c.023-.035.082-.058.128-.058h5.328c.047 0 .07.035.058.07l-.093.28c-.012.047-.058.07-.105.07zm2.828 1.075c-.047 0-.059-.035-.035-.07l.163-.292c.023-.035.07-.07.117-.07h2.337c.047 0 .07.035.07.082l-.023.28c0 .047-.047.082-.082.082zm12.129-2.36c-.596.152-1.003.268-1.588.42-.143.035-.152.047-.28-.094-.143-.163-.257-.268-.467-.362-.608-.303-1.203-.21-1.752.115-.655.384-1.003 1.003-1.003 1.763 0 .747.525 1.36 1.26 1.47.632.094 1.168-.117 1.588-.583.082-.094.152-.21.245-.35h-1.763c-.198 0-.245-.117-.187-.28.117-.28.327-.747.455-.98.023-.035.07-.082.117-.082h3.456c.023 0 .047 0 .07.012-.023.35-.023.7-.082 1.05-.175 1.05-.596 2.007-1.32 2.777-.925 1.002-2.07 1.53-3.408 1.564-1.166.023-2.17-.35-2.94-1.225-.712-.82-1.05-1.798-1.027-2.894.023-1.236.432-2.32 1.236-3.22.862-.97 1.937-1.565 3.22-1.717.92-.105 1.798.07 2.59.572.583.362 1.003.865 1.26 1.517.082.175.023.257-.175.303zm3.21 5.235c-1.085 0-2.07-.327-2.835-1.096-.64-.64-1.003-1.436-1.003-2.425-.012-1.132.397-2.112 1.119-2.952.782-.92 1.75-1.506 2.975-1.717.572-.082 1.132-.082 1.693.023.607.117 1.143.35 1.576.76.42.397.642.9.677 1.46 0 .105-.082.163-.187.163h-1.657c-.152 0-.222-.07-.28-.21-.14-.397-.432-.595-.853-.665-.642-.105-1.226.047-1.717.455-.42.35-.642.85-.642 1.424 0 .572.175 1.072.572 1.424.408.362.913.537 1.459.502.513-.023.956-.21 1.307-.572.082-.094.152-.117.175-.117.035 0 .07.023.105.047l1.166.653c.035.023.07.07.047.117-.327.757-.84 1.27-1.529 1.6-.572.28-1.178.397-1.786.385-.082.011-.152.011-.222.011z"/></svg>
