<svg role="img" viewBox="0 0 24 24" xmlns="http://www.w3.org/2000/svg"><title>Java</title><path d="M8.851 18.56s-.917.534.653.714c1.902.218 2.874.187 4.969-.211 0 0 .552.346 1.321.646-4.699 2.013-10.633-.118-6.943-1.149m-.581-2.590s-1.028.761.542.924c2.032.209 3.636.227 6.413-.308 0 0 .384.389.987.602-5.679 1.661-12.007.131-7.942-1.218m4.87-4.700c1.158 1.333-.304 2.533-.304 2.533s2.939-1.518 1.589-3.418c-1.261-1.772-2.228-2.652 3.007-5.688 0 0-8.216 2.051-4.292 6.573M19.557 20.672s.679.559-.747.991c-2.712.822-11.288 1.070-13.669.033-.856-.373.75-.891 1.254-.999.527-.114.828-.093.828-.093-.953-.671-6.156 1.317-2.643 1.887 9.58 1.553 17.462-.699 14.977-1.819m-10.290-7.403s-4.366 1.037-1.546 1.414c1.191.158 3.564.122 5.774-.062 1.807-.152 3.621-.477 3.621-.477s-.637.272-1.098.587c-4.429 1.165-12.986.623-10.522-.568 2.082-1.006 3.771-.894 3.771-.894m7.831 4.374c4.500-2.339 2.419-4.588.967-4.288-.355.074-.515.138-.515.138s.132-.207.385-.297c2.875-1.011 5.086 2.981-.928 4.562 0 0 .070-.062.091-.115M13.442.001s2.494 2.494-2.366 6.330c-3.899 3.077-.889 4.832 0 6.836-2.273-2.051-3.943-3.858-2.824-5.541 1.647-2.471 6.211-3.670 5.190-7.625M9.935 23.954c4.322.277 10.959-.153 11.115-2.198 0 0-.302.775-3.571 1.390-3.688.694-8.236.613-10.937.168 0 0 .553.457 3.393.640z"/></svg>
