<svg xmlns="http://www.w3.org/2000/svg" viewBox="0 0 24 24" fill="none">
  <rect width="24" height="24" rx="4" fill="#0052CC"/>
  <path d="M12.8 4.2L7.4 9.6c-.3.3-.3.8 0 1.1l2.1 2.1 5.8-5.8c.3-.3.3-.8 0-1.1l-1.4-1.4c-.3-.3-.8-.3-1.1-.3z" fill="white" opacity="0.9"/>
  <path d="M11.2 11.2L5.8 16.6c-.3.3-.3.8 0 1.1l1.4 1.4c.3.3.8.3 1.1 0l5.4-5.4c.3-.3.3-.8 0-1.1l-2.1-2.1-.4-.3z" fill="white" opacity="0.6"/>
  <path d="M14.9 7.5l-5.4 5.4c-.3.3-.3.8 0 1.1l1.4 1.4c.3.3.8.3 1.1 0l5.4-5.4c.3-.3.3-.8 0-1.1L15.9 7.5c-.3-.3-.7-.3-1 0z" fill="white"/>
</svg>
