<svg xmlns="http://www.w3.org/2000/svg" viewBox="0 0 32 32">
  <path fill="#326CE5" d="M16 1.5a14.5 14.5 0 1 0 0 29 14.5 14.5 0 0 0 0-29zm0 2a12.5 12.5 0 0 1 10.22 5.29l-3.7 3.7a7.5 7.5 0 0 0-2.02-1.2V7.1A12.53 12.53 0 0 1 16 3.5zm-4.5.82v4.17a7.5 7.5 0 0 0-2 1.2l-3.7-3.7A12.53 12.53 0 0 1 11.5 4.32zm4.5 5.68a5.5 5.5 0 1 1 0 11 5.5 5.5 0 0 1 0-11zM5.79 7.79l3.7 3.7A7.5 7.5 0 0 0 8.3 13.5H4.1a12.53 12.53 0 0 1 1.68-5.71zm20.42 0A12.53 12.53 0 0 1 27.9 13.5h-4.2a7.5 7.5 0 0 0-1.2-2.01l3.7-3.7zM4.1 15.5h4.2a7.5 7.5 0 0 0 1.2 2.01l-3.7 3.7A12.53 12.53 0 0 1 4.1 15.5zm19.6 0H27.9a12.53 12.53 0 0 1-1.68 5.71l-3.7-3.7a7.5 7.5 0 0 0 1.2-2.01zm-14.2 3.71a7.5 7.5 0 0 0 2.01 1.2v4.18a12.53 12.53 0 0 1-5.7-1.68l3.7-3.7zm8.79 0l3.7 3.7a12.53 12.53 0 0 1-5.71 1.68V20.4a7.5 7.5 0 0 0 2.01-1.19z"/>
</svg>
