<svg role="img" viewBox="0 0 24 24" xmlns="http://www.w3.org/2000/svg"><title>PHP</title><path d="M7.01 10.207h-.944l-.515 2.648h.838c.556 0 .96-.104 1.214-.314.253-.209.43-.586.53-1.121.098-.511.073-.875-.076-1.09-.149-.217-.519-.123-.047-.123zm8.818-.023c-.546 0-.96.104-1.214.314-.253.209-.43.586-.53 1.12-.098.512-.073.875.076 1.091.148.217.519.325.47.325l.944-.001.515-2.648-.26.001h.001zm-9.98 1.547l-2.004.001-.28 1.439-.87-.001L4 9.39h.87l-.311 1.6h2.003l.313-1.6h.87l-.695 3.783-.87.001.279-1.42zm4.73-2.67L9.4 12.844h-.87l.695-3.783h1.162c1.093 0 1.604.459 1.534 1.38-.047.6-.394 1.062-1.042 1.384l.54 1.018h-1.02l-.47-1.013h-.361zm7.94-1.06c1.157 0 1.832.4 2.026 1.197.1.415.072.87-.082 1.367-.38 1.236-1.138 1.854-2.277 1.854h-.94l-.28 1.44h-.87l.696-3.783h1.727z"/></svg>
