<svg role="img" viewBox="0 0 24 24" xmlns="http://www.w3.org/2000/svg"><title>PostgreSQL</title><path d="M17.1 2C14.6 2 12.4 3.3 11.2 5.3 10.8 5.1 10.4 5 10 5 7.2 5 5 7.2 5 10c0 .9.2 1.7.6 2.4C5.2 13 5 13.7 5 14.5 5 16.4 6.6 18 8.5 18c.3 0 .6 0 .9-.1.6.7 1.4 1.1 2.4 1.1.7 0 1.4-.2 2-.6.4.1.8.1 1.2.1C18.8 18.5 22 15.3 22 11.4V9.2C22 5.2 19.9 2 17.1 2zm0 2c1.7 0 3.1 1.6 3.5 3.8C20 8.5 20 9 20 9.2v2.2c0 2.8-2.3 5.1-5.1 5.1-.3 0-.7 0-1-.1l-.4-.1-.3.3c-.4.5-1 .9-1.7.9-.6 0-1.2-.3-1.6-.8l-.3-.4-.5.1c-.3.1-.6.1-.6.1-1 0-1.9-.9-1.9-1.9 0-.5.1-.9.4-1.3l.3-.5-.2-.5C7.2 11.6 7 10.8 7 10c0-1.7 1.3-3 3-3 .3 0 .5 0 .8.1l.5.1.4-.4C12.6 5.7 14 4.2 15 3.8c.6-.5 1.3-.8 2.1-.8zm-1 4c-.6 0-1 .4-1 1s.4 1 1 1 1-.4 1-1-.4-1-1-1zm-3 8v3h2v-3h-2z"/></svg>
