<svg role="img" viewBox="0 0 24 24" xmlns="http://www.w3.org/2000/svg"><title>Ruby</title><path d="M20.156.083c3.033.525 3.893 2.598 3.829 4.77L24 4.822 22.635 22.71 7.89 23.99 0 23.613l.875-6.847 1.103.069 2.911.181 2.91.18.869-3.384 3.384.031 2.473-7.686H4.34l.35-1.354 7.507-4.43L20.156.083zM6.552 21.5l2.275.195 2.627-6.195-4.902 6.001zm1.482-6.615l1.275.08 1.432-4.5H7.93l.104-2.21-.818 2.3L6.55 14.8l1.483.086zM19.5 8.81l-2.042 6.03-1.607-6.03H19.5zm-9.84 6.3l-.73-5.948-2.71 5.948h3.44z"/></svg>
