<svg role="img" viewBox="0 0 24 24" xmlns="http://www.w3.org/2000/svg"><title>Rust</title><path d="M23.634 11.48l-1.004-.62a13.44 13.44 0 00-.028-.29l.864-.82a.372.372 0 00-.169-.627l-1.098-.258a13.4 13.4 0 00-.087-.278l.7-1.003a.372.372 0 00-.309-.583l-1.12.046a13.44 13.44 0 00-.143-.255l.515-1.15a.372.372 0 00-.437-.507l-1.084.346a13.44 13.44 0 00-.194-.225l.315-1.264a.372.372 0 00-.55-.413l-.993.625a13.44 13.44 0 00-.238-.186l.104-1.3a.372.372 0 00-.64-.295l-.853.864a13.44 13.44 0 00-.274-.14l-.107-1.302a.372.372 0 00-.704-.154l-.676 1.07a13.44 13.44 0 00-.3-.09l-.31-1.27a.372.372 0 00-.733.0l-.31 1.27a13.44 13.44 0 00-.3.09L9.872 1.05a.372.372 0 00-.704.154L9.06 2.507a13.44 13.44 0 00-.274.14l-.852-.864a.372.372 0 00-.64.295l.104 1.3a13.44 13.44 0 00-.238.186l-.993-.625a.372.372 0 00-.55.413l.315 1.264a13.44 13.44 0 00-.194.225l-1.084-.346a.372.372 0 00-.437.507l.514 1.15a13.44 13.44 0 00-.142.255l-1.12-.046a.372.372 0 00-.31.583l.7 1.003a13.4 13.4 0 00-.086.278l-1.099.258a.372.372 0 00-.169.627l.864.82a13.44 13.44 0 00-.028.29l-1.004.62a.372.372 0 000 .643l1.004.62c.008.097.017.194.028.29l-.864.82a.372.372 0 00.17.627l1.098.258c.027.093.056.186.086.278l-.7 1.003a.372.372 0 00.31.583l1.12-.046c.046.086.093.17.142.255l-.514 1.15a.372.372 0 00.437.507l1.084-.346c.063.076.128.152.194.225l-.315 1.264a.372.372 0 00.55.413l.993-.625c.077.063.157.125.238.186l-.104 1.3a.372.372 0 00.64.295l.852-.864c.09.048.181.095.274.14l.107 1.302a.372.372 0 00.704.154l.676-1.07c.099.031.2.061.3.09l.31 1.27a.372.372 0 00.733 0l.31-1.27c.1-.029.2-.059.3-.09l.676 1.07a.372.372 0 00.704-.154l.107-1.302c.093-.045.184-.092.274-.14l.852.864a.372.372 0 00.64-.295l-.103-1.3c.08-.061.16-.123.237-.186l.993.625a.372.372 0 00.55-.413l-.315-1.264c.066-.073.131-.149.194-.225l1.084.346a.372.372 0 00.437-.507l-.515-1.15c.05-.084.097-.169.143-.255l1.12.046a.372.372 0 00.31-.583l-.7-1.003c.03-.092.059-.185.086-.278l1.099-.258a.372.372 0 00.169-.627l-.864-.82c.011-.096.02-.193.028-.29l1.004-.62a.372.372 0 000-.643zM12 16.8a4.8 4.8 0 110-9.6 4.8 4.8 0 010 9.6zm7.124-5.232l-.975.6a6.17 6.17 0 00-3.317-3.317l.6-.975a7.4 7.4 0 013.692 3.692zM12 9.6a2.4 2.4 0 100 4.8 2.4 2.4 0 000-4.8z"/></svg>
