<svg role="img" viewBox="0 0 24 24" xmlns="http://www.w3.org/2000/svg"><title>Swift</title><path d="M20.5 14.3c.1-.4.2-.9.2-1.3C20.7 8.1 16.7 4 11.6 4 8.8 4 6.3 5.3 4.7 7.4 4.3 7.1 3.8 7 3.2 7 1.4 7 0 8.4 0 10.2s1.4 3.2 3.2 3.2c.2 0 .4 0 .6-.1.8 2.4 3 4.1 5.6 4.2L6.8 20h3.5l2.9-4h.5c3.5 0 6.5-2.4 7.2-5.7h-.4zM11.6 6c3.6 0 6.5 2.7 6.7 6.2-1.4-1.6-3.3-2.8-5.5-3.4 1.1 1.1 1.9 2.5 2.2 4-1.3-1.2-3-2-4.9-2.1 1.5.8 2.7 2.2 3.1 3.8-1.4-.5-2.6-1.5-3.4-2.8.1.6.3 1.1.6 1.6-1-.8-1.7-1.9-1.9-3.3C7 11.5 6.1 13 6 14.8c-.5-.8-.8-1.8-.8-2.8C5.2 8.7 8.1 6 11.6 6z"/></svg>
